<mxfile host="app.diagrams.net" modified="2020-09-11T03:20:11.691Z" agent="5.0 (Windows NT 10.0; Win64; x64) AppleWebKit/537.36 (KHTML, like Gecko) Chrome/85.0.4183.83 Safari/537.36 Edg/85.0.564.44" etag="YxDQ4CPTWvU5UfFWx7lD" version="13.6.6" type="github" pages="3">
  <diagram id="thj_J4kE75ELtRwNi25f" name="第 1 页">
    <mxGraphModel dx="852" dy="622" grid="1" gridSize="10" guides="1" tooltips="1" connect="1" arrows="1" fold="1" page="1" pageScale="1" pageWidth="827" pageHeight="1169" math="0" shadow="0">
      <root>
        <mxCell id="0" />
        <mxCell id="1" parent="0" />
        <mxCell id="F_3PkwaOfFKdWf8fHymv-19" value="" style="shape=image;html=1;verticalAlign=top;verticalLabelPosition=bottom;labelBackgroundColor=#ffffff;imageAspect=0;aspect=fixed;image=https://cdn2.iconfinder.com/data/icons/social-media-2304/64/03-google_map-128.png" vertex="1" parent="1">
          <mxGeometry x="180" y="230" width="128" height="128" as="geometry" />
        </mxCell>
      </root>
    </mxGraphModel>
  </diagram>
  <diagram id="dY6y1cv3BUU5_WUaBw_V" name="第 2 页">
    <mxGraphModel dx="852" dy="622" grid="1" gridSize="10" guides="1" tooltips="1" connect="1" arrows="1" fold="1" page="1" pageScale="1" pageWidth="827" pageHeight="1169" math="0" shadow="0">
      <root>
        <mxCell id="PK8QV7BrFgb21ZZ9Hicx-0" />
        <mxCell id="PK8QV7BrFgb21ZZ9Hicx-1" parent="PK8QV7BrFgb21ZZ9Hicx-0" />
        <mxCell id="PK8QV7BrFgb21ZZ9Hicx-2" value="" style="shape=image;html=1;verticalAlign=top;verticalLabelPosition=bottom;labelBackgroundColor=#ffffff;imageAspect=0;aspect=fixed;image=https://cdn4.iconfinder.com/data/icons/REALVISTA/networking/png/128/satellite.png" vertex="1" parent="PK8QV7BrFgb21ZZ9Hicx-1">
          <mxGeometry x="290" y="280" width="128" height="128" as="geometry" />
        </mxCell>
      </root>
    </mxGraphModel>
  </diagram>
  <diagram id="HzGG2pD5hlHCWQhHJ4PW" name="第 3 页">
    <mxGraphModel dx="852" dy="622" grid="1" gridSize="10" guides="1" tooltips="1" connect="1" arrows="1" fold="1" page="1" pageScale="1" pageWidth="827" pageHeight="1169" math="0" shadow="0">
      <root>
        <mxCell id="gHKb-yzFj814BSOhPrM8-0" />
        <mxCell id="gHKb-yzFj814BSOhPrM8-1" parent="gHKb-yzFj814BSOhPrM8-0" />
        <mxCell id="XEjih6VCMVqBrCFrrFCA-0" value="" style="shape=image;html=1;verticalAlign=top;verticalLabelPosition=bottom;labelBackgroundColor=#ffffff;imageAspect=0;aspect=fixed;image=https://cdn2.iconfinder.com/data/icons/free-version/128/satelite-128.png" vertex="1" parent="gHKb-yzFj814BSOhPrM8-1">
          <mxGeometry x="260" y="240" width="110" height="110" as="geometry" />
        </mxCell>
      </root>
    </mxGraphModel>
  </diagram>
</mxfile>
